<svg width="314" height="180" viewBox="0 0 314 180" fill="none" xmlns="http://www.w3.org/2000/svg">
<path d="M23.502 24.0757L150.67 16.6406L277.838 24.0757L191.531 30.0959L23.502 24.0757Z" fill="#433F37"/>
<path d="M132.611 10.4486C132.873 11.5486 133.049 12.6332 133.101 13.7101C134.582 31.1984 113.172 45.3861 109.177 47.919C109.071 47.9716 108.976 48.0544 108.87 48.1063L108.832 48.1134C108.707 48.1057 108.574 48.0678 108.449 48.0601C103.42 47.277 76.1038 42.5326 67.126 26.4976C66.5385 25.524 66.0568 24.499 65.6418 23.4285C63.3471 16.0724 69.0578 8.63536 78.3895 6.82662C86.5748 5.2398 94.8023 8.47308 98.2899 14.1911C97.9766 7.85798 103.364 1.986 111.55 0.399179C120.881 -1.40828 130.316 3.09305 132.611 10.4486Z" fill="#D66B65"/>
<path d="M84.4566 9.6494C79.6548 8.79506 74.7481 10.6044 71.6373 13.4657C69.843 15.1167 68.4556 17.2833 68.1903 19.4666C67.9967 21.0586 69.3222 25.404 72.4347 24.1738C74.7448 23.2605 74.731 19.3563 74.9979 17.6694C75.3446 15.481 75.8263 13.0001 78.3204 11.6589C82.6502 9.32998 84.4525 9.64876 84.4566 9.6494Z" fill="#EBC3C1"/>
<path d="M117.91 2.24248C113.107 1.38814 108.201 3.19753 105.09 6.0588C103.296 7.70976 101.909 9.87639 101.643 12.0597C101.45 13.6517 102.775 17.9978 105.888 16.7669C108.198 15.8536 108.184 11.9494 108.451 10.2619C108.798 8.07406 109.279 5.59314 111.773 4.25197C116.103 1.92306 117.906 2.24184 117.91 2.24248Z" fill="#EBC3C1"/>
<path d="M217.209 22.8917C216.959 23.8916 216.64 24.8556 216.221 25.7792C209.955 40.9566 185.759 47.2301 181.292 48.3038C181.181 48.3198 181.064 48.3641 180.952 48.3801L180.917 48.3763C180.816 48.3365 180.719 48.2685 180.617 48.2288C176.702 46.2231 155.653 34.9172 154.959 18.9657C154.881 17.9863 154.914 16.9908 155.024 15.9748C156.246 9.1446 164.27 4.38351 172.935 5.34753C180.536 6.19289 186.101 11.1233 186.59 16.8875C189.048 11.4511 196.126 7.92722 203.726 8.77194C212.393 9.7366 218.432 16.0614 217.209 22.8917Z" fill="#D66B65"/>
<path d="M176.851 9.35363C173.16 7.34863 168.234 7.56733 164.375 9.15543C162.149 10.0713 160.044 11.5331 158.882 13.3072C158.034 14.6009 157.286 18.6276 160.445 18.4198C162.791 18.2646 164.458 14.9607 165.409 13.6061C166.642 11.8487 168.116 9.88085 170.802 9.41327C175.462 8.60127 176.848 9.35235 176.851 9.35363Z" fill="#EBC3C1"/>
<path d="M208.311 12.0289C204.62 10.0239 199.695 10.2426 195.835 11.8307C193.609 12.7466 191.505 14.2084 190.343 15.9825C189.495 17.2762 188.746 21.3029 191.906 21.0951C194.252 20.9399 195.918 17.6367 196.87 16.2814C198.103 14.5246 199.577 12.5568 202.261 12.0892C206.922 11.2766 208.308 12.0276 208.311 12.0289Z" fill="#EBC3C1"/>
<path d="M191.532 180L29.6133 169.766V24.0757L191.532 30.0958V180Z" fill="#EBB986"/>
<path d="M171.014 125.382L43.6445 121.365L44.1938 78.6932L171.579 81.4763L171.014 125.382Z" fill="#FAF7F4"/>
<path d="M50.5762 116.137L50.9863 84.2849L164.652 86.7678L164.224 119.722L50.5762 116.137Z" stroke="#8BC2C9" stroke-width="1.73355" stroke-miterlimit="10"/>
<path d="M191.533 180L277.84 170.367V24.0757L191.533 30.0958V180Z" fill="#BF976D"/>
<path d="M191.532 30.0958L169.175 48.9093L0 43.7916L23.5027 24.0757L191.532 30.0958Z" fill="#EBC49B"/>
<path d="M277.84 24.0757L313.737 40.4807L222.848 48.9093L191.533 30.0958L277.84 24.0757Z" fill="#EBC49B"/>
<path d="M29.6133 44.6876L169.175 48.9093L191.532 30.0958V39.5026L174.028 54.0334L29.6133 50.3954V44.6876Z" fill="#BF976D"/>
<path d="M191.533 30.0958L222.848 48.9093L277.84 43.8095V50.4499L222.019 55.4278L191.533 30.0958Z" fill="#A6835F"/>
<path d="M59.4432 108.386L59.77 98.3645L64.3239 98.4568C65.4123 98.4788 66.3649 98.7082 67.1818 99.145C67.999 99.5722 68.6294 100.163 69.0729 100.917C69.5164 101.671 69.7215 102.558 69.6882 103.579C69.6552 104.591 69.3925 105.469 68.9002 106.214C68.4081 106.948 67.7399 107.518 66.8956 107.921C66.0516 108.314 65.0855 108.5 63.9971 108.478L59.4432 108.386ZM61.8252 106.529L63.9446 106.572C64.6129 106.585 65.1946 106.473 65.6896 106.234C66.1944 105.987 66.5881 105.632 66.8707 105.17C67.1628 104.708 67.3191 104.162 67.3397 103.532C67.3605 102.892 67.24 102.341 66.9781 101.877C66.726 101.404 66.3558 101.038 65.8674 100.78C65.3889 100.513 64.8156 100.372 64.1473 100.358L62.0278 100.316L61.8252 106.529ZM76.1378 108.896C75.3454 108.88 74.6144 108.736 73.945 108.465C73.2851 108.193 72.7146 107.819 72.2334 107.341C71.7617 106.864 71.3978 106.307 71.1414 105.672C70.8947 105.036 70.7834 104.346 70.8077 103.602C70.832 102.858 70.988 102.173 71.2759 101.549C71.5733 100.924 71.9779 100.383 72.4896 99.9258C73.0013 99.4683 73.5955 99.1174 74.2722 98.8732C74.9488 98.6291 75.6786 98.515 76.4615 98.5308C77.2539 98.5469 77.9753 98.6904 78.6256 98.9615C79.2855 99.2327 79.8512 99.6071 80.3229 100.085C80.8041 100.562 81.1728 101.119 81.4292 101.754C81.6858 102.38 81.8018 103.07 81.7772 103.824C81.7529 104.569 81.5919 105.258 81.2942 105.892C80.9968 106.516 80.5923 107.057 80.0806 107.515C79.5787 107.963 78.9895 108.309 78.3128 108.553C77.6456 108.797 76.9206 108.912 76.1378 108.896ZM76.1879 106.92C76.6366 106.929 77.0496 106.861 77.4269 106.716C77.8138 106.571 78.1551 106.358 78.4508 106.078C78.7466 105.797 78.9772 105.463 79.1427 105.075C79.3178 104.687 79.4131 104.254 79.4287 103.777C79.4442 103.3 79.3772 102.864 79.2277 102.469C79.0877 102.075 78.8792 101.731 78.6021 101.439C78.3346 101.147 78.0124 100.921 77.6355 100.761C77.2586 100.6 76.8458 100.516 76.397 100.506C75.9483 100.497 75.5305 100.565 75.1437 100.71C74.7664 100.855 74.4298 101.068 74.1341 101.349C73.8383 101.629 73.6029 101.964 73.4279 102.352C73.2624 102.74 73.1718 103.172 73.1563 103.65C73.141 104.117 73.2032 104.553 73.3429 104.957C73.4924 105.352 73.701 105.695 73.9685 105.987C74.2456 106.279 74.5726 106.505 74.9495 106.666C75.3264 106.826 75.7392 106.911 76.1879 106.92ZM83.3573 108.87L83.6842 98.8491L85.6031 98.888L91.2822 106.223L90.3513 106.204L90.5867 98.989L92.8779 99.0354L92.5511 109.056L90.6465 109.018L84.9531 101.683L85.8839 101.701L85.6486 108.917L83.3573 108.87ZM93.6053 109.078L98.4002 99.1473L100.691 99.1937L104.847 109.306L102.412 109.256L99.035 100.335L99.9515 100.353L95.9825 109.126L93.6053 109.078ZM95.9094 106.976L96.5826 105.227L101.738 105.332L102.311 107.105L95.9094 106.976ZM107.46 109.359L107.725 101.227L104.517 101.162L104.579 99.2725L113.315 99.4495L113.253 101.339L110.045 101.274L109.78 109.406L107.46 109.359ZM114.236 109.496L114.563 99.4748L116.883 99.5218L116.556 109.543L114.236 109.496ZM123.798 109.862C123.006 109.846 122.275 109.702 121.606 109.43C120.946 109.159 120.375 108.785 119.894 108.307C119.422 107.829 119.058 107.273 118.802 106.637C118.555 106.002 118.444 105.312 118.468 104.568C118.492 103.823 118.649 103.139 118.936 102.514C119.234 101.89 119.638 101.349 120.15 100.892C120.662 100.434 121.256 100.083 121.933 99.839C122.609 99.5949 123.339 99.4807 124.122 99.4966C124.914 99.5127 125.636 99.6562 126.286 99.9272C126.946 100.198 127.512 100.573 127.983 101.05C128.465 101.528 128.833 102.085 129.09 102.72C129.346 103.346 129.462 104.036 129.438 104.79C129.413 105.534 129.252 106.224 128.955 106.857C128.657 107.482 128.253 108.023 127.741 108.48C127.239 108.929 126.65 109.275 125.973 109.519C125.306 109.763 124.581 109.877 123.798 109.862ZM123.848 107.886C124.297 107.895 124.71 107.827 125.087 107.682C125.474 107.537 125.816 107.324 126.111 107.043C126.407 106.763 126.638 106.428 126.803 106.04C126.978 105.652 127.074 105.22 127.089 104.742C127.105 104.265 127.038 103.829 126.888 103.435C126.748 103.04 126.54 102.697 126.263 102.405C125.995 102.113 125.673 101.887 125.296 101.726C124.919 101.566 124.506 101.481 124.058 101.472C123.609 101.463 123.191 101.531 122.804 101.676C122.427 101.821 122.09 102.034 121.795 102.314C121.499 102.595 121.263 102.929 121.088 103.317C120.923 103.705 120.832 104.138 120.817 104.615C120.802 105.083 120.864 105.519 121.003 105.923C121.153 106.317 121.361 106.661 121.629 106.953C121.906 107.245 122.233 107.471 122.61 107.631C122.987 107.792 123.4 107.877 123.848 107.886ZM131.018 109.836L131.345 99.8149L133.264 99.8537L138.943 107.189L138.012 107.17L138.247 99.9547L140.538 100.001L140.212 110.022L138.307 109.984L132.614 102.648L133.544 102.667L133.309 109.882L131.018 109.836ZM145.871 110.309C145.069 110.293 144.304 110.172 143.576 109.947C142.848 109.713 142.265 109.419 141.828 109.067L142.673 107.336C143.092 107.65 143.59 107.913 144.166 108.125C144.751 108.328 145.345 108.436 145.946 108.448C146.405 108.457 146.774 108.422 147.053 108.342C147.343 108.252 147.557 108.127 147.696 107.968C147.835 107.808 147.908 107.624 147.915 107.414C147.923 107.146 147.825 106.934 147.62 106.777C147.416 106.611 147.143 106.476 146.802 106.374C146.462 106.262 146.083 106.159 145.666 106.064C145.259 105.961 144.847 105.838 144.431 105.696C144.025 105.554 143.654 105.374 143.317 105.157C142.98 104.94 142.707 104.658 142.499 104.31C142.3 103.962 142.209 103.521 142.227 102.986C142.246 102.414 142.415 101.897 142.736 101.435C143.067 100.964 143.547 100.597 144.176 100.333C144.816 100.059 145.608 99.932 146.553 99.9511C147.183 99.9639 147.801 100.053 148.407 100.218C149.014 100.373 149.546 100.604 150.004 100.909L149.231 102.656C148.772 102.379 148.31 102.174 147.846 102.04C147.383 101.897 146.927 101.821 146.478 101.812C146.029 101.803 145.66 101.848 145.37 101.947C145.081 102.046 144.871 102.18 144.741 102.35C144.612 102.509 144.543 102.699 144.536 102.919C144.528 103.176 144.626 103.388 144.831 103.555C145.036 103.712 145.309 103.841 145.649 103.944C145.99 104.046 146.364 104.149 146.771 104.253C147.188 104.357 147.6 104.475 148.006 104.608C148.422 104.74 148.799 104.915 149.136 105.132C149.472 105.349 149.74 105.631 149.939 105.979C150.147 106.327 150.243 106.764 150.226 107.288C150.208 107.852 150.033 108.364 149.703 108.825C149.373 109.286 148.888 109.654 148.248 109.927C147.618 110.201 146.826 110.328 145.871 110.309Z" fill="#8BC2C9"/>
</svg>
