<svg width="248" height="295" viewBox="0 0 248 295" fill="none" xmlns="http://www.w3.org/2000/svg">
<path d="M65.5889 194.823C65.5889 194.823 46.3085 227.776 46.659 259.508C47.0105 291.239 48.7775 294.308 48.7775 294.308C48.7775 294.308 56.3225 232.754 65.5889 194.823Z" fill="#452157"/>
<path d="M78.4233 163.62C78.4233 163.62 70.7252 200.857 81.2713 230.941C91.8184 261.023 94.483 263.403 94.483 263.403C94.483 263.403 81.8351 202.538 78.4233 163.62Z" fill="#452157"/>
<path d="M103.019 114.891C103.019 114.891 95.3207 152.129 105.868 182.212C116.414 212.295 119.079 214.676 119.079 214.676C119.079 214.676 106.43 153.809 103.019 114.891Z" fill="#452157"/>
<path d="M129.027 73.6022C129.027 73.6022 121.329 110.841 131.875 140.924C142.421 171.006 145.087 173.387 145.087 173.387C145.087 173.387 132.438 112.52 129.027 73.6022Z" fill="#452157"/>
<path d="M69.5522 185.79C69.5522 185.79 62 223.055 72.662 253.099C83.324 283.142 85.9982 285.513 85.9982 285.513C85.9982 285.513 73.1142 224.695 69.5522 185.79Z" fill="#A860A7"/>
<path d="M90.4644 139.891C90.4644 139.891 82.9122 177.157 93.5742 207.199C104.236 237.243 106.909 239.613 106.909 239.613C106.909 239.613 94.0264 178.795 90.4644 139.891Z" fill="#A860A7"/>
<path d="M114.448 93.7754C114.448 93.7754 106.896 131.04 117.558 161.084C128.219 191.127 130.893 193.497 130.893 193.497C130.893 193.497 118.01 132.679 114.448 93.7754Z" fill="#A860A7"/>
<path d="M145.322 51.2312C145.322 51.2312 137.769 88.496 148.43 118.539C159.092 148.583 161.766 150.953 161.766 150.953C161.766 150.953 148.884 90.1346 145.322 51.2312Z" fill="#A860A7"/>
<path d="M67.8838 187.755C67.8838 187.755 133.363 4.22732 237.043 2.02222" stroke="#A860A7" stroke-width="3.3184" stroke-miterlimit="10"/>
<path d="M74.4331 177.494C74.4331 177.494 64.3958 213.882 41.4526 235.903C18.5094 257.924 15.0742 258.861 15.0742 258.861C15.0742 258.861 53.8059 210.484 74.4331 177.494Z" fill="#A860A7"/>
<path d="M90.1578 141.435C90.1578 141.435 69.0571 172.72 40.2866 186.537C11.5161 200.353 7.95996 200.195 7.95996 200.195C7.95996 200.195 60.0923 166.302 90.1578 141.435Z" fill="#A860A7"/>
<path d="M116.705 91.7336C116.705 91.7336 95.6029 123.02 66.8333 136.835C38.0628 150.652 34.5068 150.493 34.5068 150.493C34.5068 150.493 86.6401 116.601 116.705 91.7336Z" fill="#A860A7"/>
<path d="M153.905 44.7142C153.905 44.7142 127.166 71.4389 96.2751 79.6838C65.3832 87.9296 61.9248 87.1247 61.9248 87.1247C61.9248 87.1247 119.611 63.5255 153.905 44.7142Z" fill="#A860A7"/>
<path d="M83.4405 156.362C83.4405 156.362 68.8346 191.141 43.2723 210.128C17.7091 229.114 14.1836 229.622 14.1836 229.622C14.1836 229.622 58.7707 186.485 83.4405 156.362Z" fill="#452157"/>
<path d="M101.277 118.465C101.277 118.465 79.9056 149.568 51.0166 163.144C22.1276 176.718 18.5732 176.531 18.5732 176.531C18.5732 176.531 70.9983 143.077 101.277 118.465Z" fill="#452157"/>
<path d="M138.218 62.3214C138.218 62.3214 116.846 93.4251 87.9581 107C59.0701 120.575 55.5146 120.387 55.5146 120.387C55.5146 120.387 107.939 86.9334 138.218 62.3214Z" fill="#452157"/>
<path d="M162.247 37.9332C162.247 37.9332 130.954 59.3119 99.074 61.8835C67.1943 64.4552 63.9512 63.0537 63.9512 63.0537C63.9512 63.0537 125.032 50.2312 162.247 37.9332Z" fill="#452157"/>
</svg>
